<svg width="20" height="21" viewBox="0 0 20 21" fill="none" xmlns="http://www.w3.org/2000/svg">
<path fill-rule="evenodd" clip-rule="evenodd" d="M10 0.500001C7.74456 0.498765 5.56237 1.3538 3.84416 2.91199C2.12596 4.47019 0.983956 6.62978 0.622647 9.00406C0.261337 11.3784 0.704318 13.8123 1.87227 15.87C3.04022 17.9277 4.85686 19.4749 6.9969 20.2344C7.47386 20.3286 7.64609 20.0177 7.64609 19.7634C7.64609 19.5091 7.64609 18.8874 7.64609 18.0443C4.9963 18.6566 4.44868 16.6879 4.44868 16.6879C4.27341 16.0649 3.89207 15.5311 3.37551 15.1854C2.51433 14.559 3.44175 14.5684 3.44175 14.5684C3.74257 14.6133 4.02982 14.7308 4.28161 14.912C4.5334 15.0932 4.74309 15.3333 4.89472 15.614C5.74266 17.1636 7.10289 16.7161 7.65934 16.4571C7.70328 15.9426 7.9178 15.4616 8.26438 15.1006C6.15338 14.8463 3.93638 13.9797 3.93638 10.0987C3.92239 9.09193 4.27365 8.11829 4.91681 7.38114C4.6246 6.50815 4.6578 5.54885 5.00955 4.70121C5.00955 4.70121 5.80449 4.42804 7.6196 5.73739C9.17521 5.28523 10.8159 5.28523 12.3716 5.73739C14.1867 4.42804 14.9816 4.70121 14.9816 4.70121C15.3307 5.5495 15.3638 6.50771 15.0744 7.38114C15.7163 8.11876 16.066 9.0925 16.0504 10.0987C16.0504 13.9891 13.8422 14.8416 11.7179 15.0959C11.9459 15.3422 12.1214 15.6379 12.2327 15.963C12.3439 16.2881 12.3883 16.6349 12.3627 16.9799C12.3627 18.3316 12.3627 19.4243 12.3627 19.7587C12.3627 20.0931 12.535 20.3427 13.0163 20.2297C15.1542 19.4672 16.9679 17.9184 18.1331 15.8604C19.2984 13.8024 19.739 11.3695 19.3762 8.99671C19.0135 6.62397 17.871 4.46627 16.1532 2.90958C14.4353 1.35288 12.2542 0.498763 10 0.500001Z" stroke="#FDFEFF" stroke-linecap="round" stroke-linejoin="round"/>
</svg>
