<svg width="18" height="18" viewBox="0 0 18 18" fill="none" xmlns="http://www.w3.org/2000/svg">
<path fill-rule="evenodd" clip-rule="evenodd" d="M17.9654 2.09463C18.2244 0.744938 16.9841 -0.376683 15.7817 0.119877L1.04234 6.20659C-0.300459 6.76111 -0.360291 8.76807 0.946746 9.41279L4.15656 10.9963L5.68351 16.7084C5.76283 17.0051 5.98311 17.2349 6.26258 17.3123C6.54206 17.3896 6.83899 17.3032 7.04314 17.085L9.39524 14.5709L12.6901 17.2122C13.6465 17.9789 15.0241 17.4204 15.2643 16.1687L17.9654 2.09463ZM1.62966 7.83133L16.369 1.74462L13.6679 15.8188L9.8077 12.7243C9.48332 12.4642 9.02939 12.4987 8.74266 12.8052L7.73522 13.882L8.03793 12.1026L13.969 5.76332C14.2577 5.45481 14.2882 4.96561 14.0404 4.61887C13.7926 4.27214 13.3431 4.17488 12.9887 4.39135L4.79761 9.39407L1.62966 7.83133ZM5.79633 10.7902L6.29042 12.6386L6.48011 11.5234C6.50977 11.3491 6.58844 11.1886 6.70563 11.0634L8.51443 9.13019L5.79633 10.7902Z" fill="#FCFEFC"/>
</svg>
